# xmcd
# 
# Track frame offsets:
#     150
#     21386
#     42820
#     75163
#     100399
#     116111
#     138022
#     156842
#     177063
#     201844
#     232916
# 
# Disc length: 3838
# 
# Revision: 0
# Processed by: cddbd v1.5.2PL0 Copyright (c) Steve Scherf et al.
# Submitted via: fre:ac v1.0.31
# 
DISCID=800efc0b
DTITLE=The Luke Doherty Band - Live at Cambridge Rock Festival
DYEAR=0
DGENRE=Blues
TTITLE0=Put It Right Back
TTITLE1=The House is Rocking
TTITLE2=All Along the Watchtower
TTITLE3=Caught in the Lights (Ain't Got No Future)
TTITLE4=Fish Bone (Electric)
TTITLE5=Bull Frog Blues
TTITLE6=I'm a King Bee
TTITLE7=Bridge to Better Days
TTITLE8=Big Legged Woman
TTITLE9=La Grange
TTITLE10=Voodoo Chile (Slight Return)/Purple Haze
EXTD=
EXTT0=
EXTT1=
EXTT2=
EXTT3=
EXTT4=
EXTT5=
EXTT6=
EXTT7=
EXTT8=
EXTT9=
EXTT10=
PLAYORDER=
